<?xml version="1.0" standalone="no"?>
<!DOCTYPE svg PUBLIC "-//W3C//DTD SVG 20010904//EN"
 "http://www.w3.org/TR/2001/REC-SVG-20010904/DTD/svg10.dtd">
<svg version="1.0" xmlns="http://www.w3.org/2000/svg"
 width="1920.000000pt" height="2543.000000pt" viewBox="0 0 1920.000000 2543.000000"
 preserveAspectRatio="xMidYMid meet">

<g transform="translate(0.000000,2543.000000) scale(0.100000,-0.100000)"
fill="#d9dbda" stroke="none">
<path d="M0 25410 c0 -18 7 -20 65 -20 51 0 65 -3 65 -15 0 -12 17 -15 95 -15
57 0 95 -4 95 -10 0 -6 30 -10 70 -10 l70 0 0 -55 0 -55 60 0 60 0 0 -45 0
-45 60 0 c53 0 60 -2 60 -20 0 -18 7 -20 60 -20 l60 0 0 -50 c0 -27 5 -50 10
-50 6 0 10 -28 10 -65 l0 -65 30 0 c30 0 30 -1 30 -55 l0 -55 50 0 50 0 0 -65
0 -65 30 0 30 0 0 -60 0 -60 35 0 35 0 0 -64 c0 -48 4 -65 15 -70 12 -4 15
-24 15 -91 0 -73 2 -85 17 -85 15 0 16 -26 10 -317 -4 -174 -7 -426 -7 -560 0
-236 -1 -243 -20 -243 -18 0 -20 -7 -20 -89 0 -80 -2 -89 -20 -94 -18 -5 -20
-14 -20 -96 l0 -91 -35 0 -35 0 0 -100 c0 -60 -4 -100 -10 -100 -6 0 -10 -43
-10 -110 l0 -110 -55 0 -55 0 0 -85 0 -85 -30 0 -30 0 0 -88 c0 -48 -4 -92
-10 -98 -5 -5 -11 -54 -12 -109 l-3 -100 -47 -3 -48 -3 0 -84 0 -84 -52 -3
-53 -3 -3 -72 c-3 -70 -4 -72 -30 -75 -26 -3 -27 -5 -30 -80 l-3 -78 -44 0
-45 0 0 -90 0 -90 -65 0 -65 0 0 -90 0 -90 -60 0 -60 0 0 -105 0 -105 -65 0
-65 0 0 -90 0 -90 -40 0 -40 0 0 -530 0 -530 105 0 105 0 0 60 0 60 110 0 110
0 0 50 0 50 165 0 165 0 0 75 0 75 125 0 125 0 0 50 0 50 165 0 164 0 3 93 3
92 213 3 212 2 0 90 0 90 125 0 125 0 0 80 0 79 158 3 157 3 3 48 3 47 45 0
44 0 0 70 0 70 105 0 105 0 0 70 0 70 75 0 75 0 0 60 0 60 45 0 45 0 0 50 0
49 78 3 77 3 3 32 c3 29 7 32 40 35 l37 3 3 89 3 89 259 -5 c143 -3 263 -8
267 -12 4 -4 9 -119 11 -256 l4 -250 -101 0 -101 0 0 -40 0 -40 -80 0 -80 0 0
-35 c0 -35 0 -35 -45 -35 l-45 0 0 -55 0 -55 -75 0 -75 0 0 -55 0 -54 -102 -3
-103 -3 -3 -67 -3 -68 -44 0 -45 0 0 -70 0 -70 -100 0 -100 0 0 -110 0 -110
-125 0 -125 0 0 -125 0 -125 -65 0 -65 0 0 -80 0 -80 -105 0 -105 0 0 -120 0
-120 -110 0 -110 0 0 -105 0 -104 -107 -3 -108 -3 -3 -122 -3 -123 -89 0 -90
0 0 -105 0 -105 -95 0 -95 0 0 -110 0 -110 -95 0 -95 0 0 -90 0 -90 -120 0
-120 0 0 -135 0 -134 -108 -3 -107 -3 -3 -122 -3 -123 -104 0 -105 0 0 -150 0
-150 -110 0 -110 0 0 -105 0 -105 -40 0 -40 0 0 -70 0 -70 160 0 160 0 0 185
0 185 185 0 185 0 0 150 0 150 195 0 195 0 0 170 0 170 200 0 200 0 0 150 0
150 210 0 210 0 0 -210 0 -210 -200 0 -200 0 0 -150 0 -150 -195 0 -195 0 0
-170 0 -170 -185 0 -185 0 0 -155 0 -155 -180 0 -180 0 0 -180 0 -180 -183 0
-184 0 -6 -257 c-4 -141 -7 -1424 -7 -2850 0 -2071 3 -2594 12 -2591 9 3 14
40 16 126 l3 122 69 0 70 0 0 45 0 45 40 0 40 0 0 95 0 95 140 0 140 0 0 140
0 140 65 0 c51 0 65 3 65 15 0 12 15 15 75 15 l74 0 3 138 3 137 88 3 87 3 0
39 c0 39 1 40 35 40 l35 0 0 110 0 110 100 0 100 0 0 34 c0 19 4 38 10 41 5 3
10 44 10 91 l0 84 100 0 100 0 0 115 0 114 108 3 107 3 3 138 3 137 119 0 120
0 0 120 0 120 115 0 115 0 0 135 0 135 115 0 115 0 0 100 0 100 85 0 85 0 0
30 c0 20 5 30 15 30 12 0 15 15 15 75 l0 75 49 0 c46 0 49 1 55 31 3 17 6 62
6 100 l0 69 45 0 c45 0 45 0 45 35 l0 35 210 0 210 0 0 -35 c0 -33 2 -35 35
-35 l35 0 0 -210 0 -210 -40 0 c-39 0 -40 -1 -40 -35 0 -34 -1 -35 -40 -35
l-40 0 0 -45 0 -45 -55 0 c-47 0 -55 -3 -55 -19 0 -10 -7 -21 -15 -25 -11 -4
-15 -22 -15 -76 l0 -70 -85 0 -85 0 0 -30 0 -30 -60 0 -60 0 0 -130 0 -130
-140 0 -140 0 0 -180 0 -180 -150 0 -150 0 -2 -177 -3 -178 -206 -9 -206 -9
-7 -195 c-4 -108 -10 -200 -12 -204 -3 -4 -50 -8 -105 -8 l-99 0 0 -35 c0 -33
-2 -35 -35 -35 l-35 0 0 -110 0 -110 -84 0 -85 0 -3 -42 -3 -43 -77 -3 -78 -3
0 -134 0 -135 -65 0 c-51 0 -65 -3 -65 -15 0 -13 -22 -15 -140 -15 l-140 0 0
-140 0 -140 -40 0 -40 0 0 -95 0 -95 -70 0 -70 0 0 -50 0 -50 -80 0 -80 0 0
-120 0 -120 -59 0 c-43 0 -60 -4 -65 -15 -4 -12 -24 -15 -86 -15 l-80 0 0
-1940 0 -1940 70 0 70 0 0 -210 0 -210 -70 0 -70 0 0 -237 0 -238 140 3 140 3
0 180 0 179 160 0 160 0 0 195 0 194 153 3 152 3 3 213 2 212 210 0 210 0 -2
-213 -3 -212 -147 -3 -148 -3 0 -209 0 -210 -165 0 -165 0 0 -195 0 -195 -135
0 -135 0 0 -180 0 -180 -135 0 -135 0 0 -200 0 -200 -80 0 -80 0 0 -891 0
-890 38 3 37 3 3 123 3 122 209 0 210 0 0 -210 0 -210 -210 0 -210 0 0 -125 0
-125 -40 0 -40 0 0 -600 0 -600 60 0 c47 0 60 -3 60 -15 0 -12 18 -15 100 -15
l100 0 0 -25 c0 -24 2 -25 65 -25 l65 0 0 -30 0 -30 125 0 c104 0 125 -2 125
-15 0 -12 15 -15 75 -15 73 0 75 -1 75 -24 0 -24 2 -24 120 -31 66 -4 120 -11
120 -16 0 -5 25 -9 55 -9 54 0 55 0 55 -30 l0 -30 63 0 c35 0 98 -3 140 -6
l77 -7 0 -52 c0 -63 4 -65 101 -65 l69 0 0 -35 0 -35 124 0 125 0 3 -42 3 -43
108 -3 107 -3 0 -34 0 -35 55 0 55 0 0 -35 c0 -35 0 -35 45 -35 l45 0 0 -45 0
-45 43 0 c106 0 207 -13 207 -26 0 -11 18 -14 70 -14 l70 0 0 -65 0 -65 90 0
90 0 0 -40 0 -40 84 0 85 0 3 -52 c3 -46 6 -53 26 -56 16 -3 22 -10 22 -28 0
-24 2 -24 85 -24 l85 0 0 -50 0 -50 60 0 60 0 0 -43 0 -44 107 -6 c58 -4 369
-7 690 -7 l583 0 0 60 0 60 100 0 100 0 2 173 3 172 158 3 157 3 0 184 0 185
90 0 90 0 0 40 c0 39 1 40 35 40 l35 0 0 125 0 125 95 0 95 0 0 80 c0 64 3 80
15 80 12 0 15 15 15 75 l0 75 100 0 100 0 0 185 0 185 120 0 120 0 0 205 0
205 105 0 105 0 0 34 c0 21 6 36 15 40 13 4 15 34 15 176 l0 170 180 0 180 0
0 70 c0 68 -1 70 -25 70 l-25 0 0 215 0 215 210 0 210 0 0 -25 c0 -26 1 -26
73 -23 l72 3 3 63 3 62 -211 0 -210 0 0 215 0 215 210 0 210 0 0 -115 0 -115
135 0 135 0 0 165 0 164 138 3 137 3 3 137 3 138 119 0 120 0 0 165 0 165 150
0 150 0 0 180 0 180 150 0 150 0 2 183 3 182 153 3 152 3 0 209 0 210 85 0
c69 0 85 3 85 15 0 12 -17 15 -95 15 l-95 0 0 45 0 45 -190 0 -190 0 0 45 0
45 -195 0 -195 0 0 -140 0 -140 -125 0 -125 0 0 -95 0 -94 -92 -3 -93 -3 -3
-132 c-2 -109 -5 -133 -17 -133 -13 0 -15 -29 -15 -190 l0 -190 -215 0 -215 0
0 130 0 131 -147 -3 -148 -3 -3 -107 -3 -108 -194 0 -195 0 0 -105 0 -105
-210 0 -210 0 0 215 0 215 195 0 195 0 0 105 0 105 155 0 155 0 0 105 0 105
195 0 195 0 0 110 c0 103 1 110 20 110 19 0 20 7 20 133 0 72 3 156 6 184 l7
53 -47 0 -46 0 0 80 0 80 -110 0 -110 0 0 183 c0 101 3 225 6 275 l7 92 208 0
209 0 0 -24 c0 -22 5 -25 43 -28 l42 -3 3 -107 3 -108 209 0 210 0 0 -210 0
-210 -105 0 -105 0 0 -110 c0 -91 3 -110 15 -110 12 0 15 17 15 95 l0 95 197
2 198 3 3 137 3 138 44 0 c41 0 45 2 45 25 l0 25 190 0 190 0 0 140 0 140 210
0 210 0 0 -210 0 -210 -30 0 c-29 0 -30 -2 -30 -45 l0 -45 78 0 c42 0 168 3
280 7 l202 6 0 184 0 183 210 0 210 0 0 -210 0 -210 -135 0 c-117 0 -135 -2
-135 -16 0 -15 36 -15 395 -9 l395 8 0 -217 0 -216 -193 0 c-107 0 -336 -3
-509 -7 l-315 -6 -5 21 c-5 17 -14 22 -42 22 l-36 0 0 -205 0 -205 -150 0
-150 0 0 -210 0 -209 -152 -3 -153 -3 -3 -182 -2 -183 -150 0 -150 0 0 -180 0
-180 -120 0 -120 0 0 -165 0 -164 -137 -3 -138 -3 -3 -138 -3 -137 -134 0
-135 0 0 -165 0 -165 -135 0 -135 0 0 -165 0 -165 -125 0 -125 0 0 -165 0
-165 -90 0 -90 0 0 -120 0 -120 -105 0 -105 0 0 -150 0 -150 -95 0 -95 0 0
-125 0 -125 -120 0 -120 0 0 -170 0 -170 -110 0 -110 0 0 -129 c0 -105 -3
-130 -15 -135 -11 -4 -15 -22 -15 -76 l0 -70 -95 0 -95 0 0 -80 0 -80 -35 0
-35 0 0 -125 0 -125 -90 0 -90 0 0 -40 0 -40 -55 0 -55 0 -2 -193 -3 -192 -32
-3 c-21 -2 -33 -9 -33 -18 0 -12 330 -14 2470 -14 l2470 0 0 50 0 49 78 3 77
3 3 78 3 77 254 0 255 0 0 -45 c0 -33 4 -45 15 -45 12 0 15 -16 15 -85 l0 -85
3270 0 3270 0 0 85 0 85 210 0 210 0 0 -85 0 -85 35 0 35 0 0 205 0 205 210 0
210 0 0 -205 0 -205 285 0 285 0 0 115 0 115 -180 0 -180 0 0 215 0 215 180 0
180 0 0 1865 0 1865 -60 0 -60 0 0 210 0 210 60 0 60 0 0 315 0 315 -50 0 -50
0 0 -155 0 -155 -95 0 -95 0 0 -105 0 -105 -90 0 -90 0 0 -110 0 -110 -125 0
-125 0 0 -120 0 -120 -100 0 -100 0 0 -165 0 -165 -95 0 -95 0 0 -90 0 -90
105 0 105 0 0 125 0 125 165 0 165 0 0 120 0 120 210 0 210 0 0 -210 0 -210
-165 0 -165 0 0 -125 0 -125 -135 0 -135 0 0 -120 0 -120 -135 0 -135 0 0
-110 0 -110 -150 0 -150 0 0 -120 0 -120 -165 0 -165 0 0 -140 0 -140 -135 0
-135 0 0 -110 0 -110 -155 0 -155 0 0 -125 0 -125 -121 0 c-112 0 -121 -1
-126 -20 -3 -13 -14 -20 -29 -20 -24 0 -24 0 -24 -120 l0 -120 -67 0 c-118 0
-113 6 -113 -126 l0 -114 -50 0 c-49 0 -50 -1 -50 -30 0 -27 -3 -30 -29 -30
-27 0 -30 -3 -33 -37 l-3 -38 -207 -3 -207 -2 -3 37 c-3 33 -7 38 -30 41 l-28
3 0 210 0 209 45 0 45 0 0 65 0 65 60 0 c57 0 60 1 60 25 0 18 5 25 20 25 18
0 20 7 20 55 l0 55 65 0 65 0 0 75 0 75 35 0 35 0 0 50 0 50 85 0 85 0 0 85 0
85 65 0 65 0 0 69 0 70 33 3 c32 3 32 4 35 60 l3 58 59 0 60 0 0 90 0 90 95 0
95 0 0 70 0 70 55 0 55 0 0 110 0 110 105 0 105 0 0 120 0 120 80 0 80 0 0 95
0 95 105 0 105 0 0 135 0 135 95 0 95 0 0 90 0 90 100 0 100 0 0 165 0 164
123 3 122 3 3 57 3 58 -131 0 -130 0 0 210 0 210 210 0 210 0 0 -150 c0 -93 4
-150 10 -150 6 0 10 43 10 110 l0 109 93 3 c91 3 92 3 92 28 0 23 -4 25 -57
28 l-58 3 0 209 0 210 175 0 c168 0 175 1 175 20 0 16 7 20 35 20 l35 0 0 165
0 165 110 0 110 0 0 4035 c0 3580 -2 4035 -15 4035 -12 0 -15 19 -15 115 l0
115 -70 0 -70 0 0 65 0 65 -30 0 -30 0 0 69 c0 77 -4 81 -87 81 l-43 0 0 145
0 145 -50 0 -50 0 0 65 0 65 -35 0 -35 0 0 54 c0 39 -4 55 -15 60 -12 4 -15
24 -15 91 0 84 0 85 -25 85 -24 0 -25 2 -25 65 l0 65 -35 0 -35 0 0 125 0 125
-80 0 -80 0 0 90 0 90 -60 0 -60 0 0 45 c0 33 -4 45 -15 45 -13 0 -15 30 -15
210 0 201 1 210 19 210 16 0 20 8 23 38 l3 37 204 3 c130 1 208 -1 215 -8 5
-5 27 -10 47 -10 l37 0 7 -95 7 -95 59 0 c56 0 59 -1 59 -25 0 -25 1 -25 80
-25 l80 0 0 -30 0 -30 75 0 75 0 0 3945 0 3945 -100 0 -100 0 0 210 0 210 100
0 100 0 0 405 0 405 -785 0 -785 0 0 -85 0 -85 -160 0 -160 0 0 -180 0 -179
-142 -3 -143 -3 -3 -197 -2 -198 -70 0 -70 0 0 -175 0 -175 -50 0 -50 0 1
-277 c1 -153 4 -339 8 -413 l6 -135 43 -3 c39 -3 42 -5 42 -33 l0 -29 110 0
110 0 0 65 0 65 170 0 170 0 0 90 0 90 198 2 197 3 3 113 3 112 179 0 180 0 0
120 0 120 180 0 180 0 0 120 0 120 210 0 210 0 0 -210 0 -210 -180 0 -180 0 0
-120 0 -120 -180 0 -180 0 0 -125 0 -125 -200 0 -200 0 0 -110 0 -110 -170 0
-170 0 0 -90 0 -90 -155 0 -155 0 0 -63 0 -64 -137 -6 c-75 -4 -210 -7 -300
-7 l-163 0 0 35 0 35 -75 0 -75 0 0 120 0 120 -45 0 -45 0 0 145 c0 90 -4 145
-10 145 -7 0 -10 143 -10 410 l0 410 55 0 55 0 0 165 0 165 70 0 70 0 0 170 0
170 140 0 140 0 0 200 0 200 165 0 165 0 0 55 0 55 -4475 0 -4475 0 0 -175 0
-175 -210 0 -210 0 0 175 0 175 -160 0 -160 0 0 -50 0 -50 -39 0 -40 0 -3 -52
-3 -53 -42 -3 -43 -3 0 -50 0 -49 -45 0 -45 0 0 -45 c0 -38 -3 -45 -20 -45
-18 0 -20 -7 -20 -55 l0 -55 60 0 60 0 0 -215 0 -215 -190 0 c-183 0 -190 -1
-190 -20 0 -19 -7 -20 -210 -20 l-210 0 0 260 0 260 50 0 50 0 0 35 c0 19 5
35 10 35 6 0 10 27 10 60 0 53 2 60 20 60 18 0 20 7 20 55 l0 55 50 0 c49 0
50 1 50 30 0 23 4 30 20 30 17 0 20 7 20 50 l0 50 -3420 0 c-3413 0 -3420 0
-3420 -20z m14970 -2350 c0 -5 18 -10 40 -10 l40 0 0 -260 0 -260 -34 0 c-31
0 -34 -3 -40 -37 -3 -21 -6 -57 -6 -80 l0 -42 -62 -3 -63 -3 -3 -127 -3 -128
-119 0 -120 0 0 -190 0 -189 -107 -3 -108 -3 -3 -192 -2 -193 -210 0 -210 0 0
115 0 116 -132 -3 -133 -3 -3 -127 -3 -128 181 0 180 0 0 -210 0 -210 -210 0
-210 0 0 205 0 205 -105 0 -105 0 0 -120 0 -120 -135 0 -135 0 0 -120 0 -120
-150 0 -150 0 0 -130 0 -130 -162 -2 -163 -3 -3 -142 -3 -143 -34 0 -35 0 0
-70 0 -70 75 0 75 0 0 -85 0 -85 95 0 95 0 0 -110 0 -110 125 0 124 0 3 -92 3
-93 87 -3 87 -3 3 -72 3 -72 93 -3 92 -3 0 -74 0 -75 90 0 89 0 3 -102 3 -103
88 -3 87 -3 0 -99 0 -100 105 0 105 0 0 -140 0 -140 45 0 45 0 0 -210 c0 -133
4 -210 10 -210 6 0 10 -77 10 -210 l0 -210 -210 0 -210 0 0 210 c0 129 -4 210
-10 210 -5 0 -11 57 -12 138 l-3 137 -42 3 -43 3 0 100 0 99 -105 0 -105 0 0
105 0 105 -90 0 -90 0 0 75 0 75 -95 0 -95 0 0 75 0 75 -90 0 -90 0 0 95 0 95
-90 0 c-83 0 -90 1 -90 20 0 19 -7 20 -120 20 l-120 0 0 -195 0 -195 -180 0
-180 0 0 -180 0 -180 -210 0 -210 0 0 -180 0 -180 -207 2 -208 3 -3 213 -2
212 210 0 210 0 0 180 0 180 180 0 180 0 0 180 0 180 200 0 200 0 0 155 0 155
-90 0 -90 0 0 85 0 84 -77 3 -78 3 -3 58 -3 57 -58 0 -58 0 -6 83 c-4 45 -7
166 -7 270 l0 187 60 0 c33 0 60 4 60 10 0 6 20 10 45 10 l45 0 0 70 0 70 165
0 165 0 0 140 0 140 150 0 150 0 0 130 0 130 135 0 135 0 0 120 0 120 135 0
135 0 0 120 0 120 150 0 150 0 0 135 0 135 105 0 105 0 0 105 0 105 120 0 120
0 0 120 0 120 75 0 75 0 0 110 0 110 70 0 70 0 0 95 0 95 80 0 80 0 0 90 0 90
40 0 c33 0 40 3 40 20 0 19 7 20 210 20 133 0 210 -4 210 -10z m-7176 -821 c3
-34 6 -147 6 -250 l0 -188 -42 -3 -43 -3 -3 -107 -3 -108 -64 0 -65 0 0 -160
0 -159 -122 -3 -123 -3 -3 -177 -2 -178 -150 0 -150 0 0 -195 0 -195 -125 0
-125 0 0 -165 0 -165 -150 0 -150 0 0 -180 0 -180 -155 0 -155 0 0 -180 0
-180 -120 0 -120 0 0 -195 0 -195 -95 0 -95 0 0 -150 0 -150 -90 0 -90 0 0
-120 0 -119 -92 -3 -93 -3 -3 -132 -3 -133 -59 0 -60 0 0 -110 0 -110 -65 0
-65 0 0 -75 0 -75 -75 0 -75 0 0 -105 0 -105 -75 0 -75 0 0 -120 0 -120 -55 0
-55 0 0 -65 0 -65 -40 0 -40 0 0 -90 0 -89 -62 -3 -63 -3 -3 -87 -3 -88 -49 0
-50 0 0 -60 0 -60 -45 0 -45 0 0 -75 0 -75 -30 0 -30 0 0 -64 0 -65 -47 -3
-48 -3 -3 -72 -3 -73 -34 0 -35 0 0 -60 c0 -33 -4 -60 -10 -60 -6 0 -10 -28
-10 -65 0 -58 -2 -65 -20 -65 -13 0 -20 -7 -20 -20 0 -19 7 -20 115 -20 l115
0 0 65 0 65 165 0 165 0 0 110 0 110 165 0 165 0 0 110 0 110 110 0 110 0 0
65 0 65 193 2 192 3 3 138 3 137 209 0 210 0 0 155 0 155 168 2 167 3 3 122 3
123 182 2 182 3 3 138 3 137 209 0 210 0 0 -210 0 -210 -185 0 -185 0 0 -140
0 -140 -170 0 -170 0 0 -125 0 -125 -210 0 -210 0 0 -155 0 -155 -195 0 -195
0 0 -140 0 -140 -110 0 -110 0 0 -65 0 -65 -165 0 -165 0 0 -110 0 -110 -165
0 -165 0 0 -110 0 -110 -135 0 -135 0 0 -65 0 -65 -135 0 -135 0 0 -60 0 -60
-75 0 c-43 0 -75 -4 -75 -10 0 -6 -77 -10 -210 -10 -133 0 -210 4 -210 10 0 6
-30 10 -70 10 l-70 0 0 70 c0 40 -4 70 -10 70 -6 0 -10 77 -10 210 l0 210 54
0 53 0 7 46 c3 26 6 71 6 100 l0 54 40 0 40 0 0 70 c0 61 2 70 19 70 15 0 19
11 25 77 3 42 6 93 6 115 0 38 0 38 40 38 l40 0 0 60 0 60 45 0 44 0 3 73 3
72 33 3 32 3 0 65 0 64 45 0 45 0 0 75 0 75 50 0 50 0 0 60 0 60 60 0 60 0 0
90 0 90 45 0 45 0 0 89 0 90 53 3 52 3 3 63 3 62 69 0 69 0 3 118 3 117 78 3
77 3 0 104 0 105 65 0 65 0 0 75 0 75 60 0 60 0 0 110 0 109 93 3 92 3 3 133
3 132 89 0 90 0 0 120 0 120 95 0 95 0 0 150 0 149 118 3 117 3 3 192 2 192
153 3 152 3 3 178 2 177 150 0 150 0 0 180 0 179 123 3 122 3 3 168 2 167 150
0 150 0 0 190 0 190 125 0 125 0 0 175 0 175 -135 0 -135 0 0 -105 0 -105
-210 0 -210 0 0 -105 0 -105 -125 0 -125 0 0 -105 0 -105 -177 -2 -178 -3 -3
-122 -3 -123 -194 0 -195 0 0 -105 0 -105 -210 0 -210 0 0 -135 0 -135 -195 0
-195 0 0 -140 0 -140 -200 0 -200 0 0 -140 0 -140 -135 0 -134 0 -3 -122 -3
-123 -137 -3 -137 -3 -3 -107 -3 -107 -182 -3 -183 -2 0 -135 0 -135 -155 0
-155 0 0 -125 0 -124 -152 -3 -153 -3 -3 -122 -3 -123 -194 0 -195 0 0 -155 0
-155 -210 0 -210 0 0 210 0 210 195 0 195 0 0 155 0 155 155 0 155 0 0 125 0
125 155 0 155 0 0 125 0 125 185 0 185 0 0 140 0 140 135 0 134 0 3 108 3 107
137 3 137 3 3 122 3 122 198 3 197 2 0 135 0 135 193 2 192 3 3 138 3 137 209
0 210 0 0 135 0 135 195 0 195 0 0 110 0 110 180 0 180 0 0 120 0 120 125 0
125 0 0 110 0 110 210 0 210 0 0 100 0 100 195 0 195 0 0 105 0 104 118 3 117
3 3 62 3 62 67 3 c61 3 67 5 70 26 3 20 9 22 68 22 50 0 64 3 64 15 0 13 30
15 209 15 l208 0 7 -61z m5956 -1619 l0 -210 -210 0 -210 0 0 210 0 210 210 0
210 0 0 -210z m-460 -475 l0 -215 -207 2 -208 3 -3 213 -2 212 210 0 210 0 0
-215z m-4070 -570 c0 -29 5 -47 15 -53 13 -7 15 -38 13 -213 l-3 -204 -86 -3
c-99 -3 -99 -2 -99 -104 l0 -58 -100 0 -100 0 0 -35 c0 -33 -2 -35 -35 -35
l-35 0 0 -160 0 -160 -125 0 -125 0 0 -135 0 -135 -150 0 -150 0 0 -150 0
-150 -105 0 -105 0 0 -165 0 -164 -122 -3 -123 -3 -3 -132 -3 -133 -104 0
-105 0 0 -135 0 -135 -60 0 -60 0 0 -135 0 -134 -62 -3 -63 -3 -3 -92 -3 -92
-62 -3 -62 -3 -3 -87 -3 -88 -44 0 -45 0 0 -95 0 -95 -80 0 -80 0 0 -120 0
-120 -30 0 -30 0 0 -120 0 -120 -30 0 -30 0 0 -135 0 -135 -50 0 -50 0 0 -135
0 -135 -35 0 -35 0 0 -100 c0 -82 -3 -100 -15 -100 -12 0 -15 -14 -15 -66 0
-57 -3 -67 -20 -71 -17 -5 -20 -14 -20 -65 0 -51 -3 -61 -20 -65 -18 -5 -20
-14 -20 -114 l0 -109 50 0 50 0 0 65 0 65 60 0 60 0 0 50 0 50 90 0 90 0 0 75
0 75 45 0 45 0 0 70 0 70 65 0 65 0 0 60 0 60 75 0 75 0 0 80 0 80 75 0 75 0
0 75 0 75 90 0 89 0 3 93 3 92 108 3 107 3 0 104 0 105 163 2 162 3 3 133 3
132 149 0 150 0 0 140 0 140 210 0 210 0 0 180 0 180 210 0 210 0 0 -210 0
-210 -210 0 -210 0 0 -185 0 -185 -150 0 -150 0 0 -135 0 -135 -165 0 -165 0
0 -135 0 -135 -105 0 -104 0 -3 -107 -3 -108 -92 -3 -93 -3 0 -89 0 -90 -75 0
-75 0 0 -80 0 -80 -75 0 -75 0 0 -75 0 -75 -65 0 -65 0 0 -59 0 -60 -42 -3
-43 -3 -3 -67 -3 -68 -84 0 -85 0 0 -75 0 -75 -65 0 -65 0 0 -50 0 -50 -70 0
-70 0 0 -65 0 -65 -75 0 -75 0 0 -30 c0 -29 -1 -30 -50 -30 l-50 0 0 -35 c0
-28 -4 -35 -19 -35 -15 0 -21 -8 -23 -32 l-3 -33 -212 -3 c-208 -2 -213 -2
-213 18 0 16 -7 20 -35 20 -35 0 -35 0 -35 45 0 41 -2 45 -24 45 -22 0 -23 5
-30 77 -3 42 -6 158 -6 258 0 169 1 183 18 187 16 5 20 20 25 104 4 55 7 152
7 217 0 97 3 117 15 117 12 0 15 16 15 85 0 78 2 85 20 85 18 0 20 7 20 66 0
57 3 67 20 71 17 5 20 14 20 69 l0 64 35 0 35 0 0 105 0 105 50 0 50 0 0 130
0 130 30 0 30 0 0 135 0 135 30 0 30 0 0 120 0 119 78 3 77 3 3 118 3 117 44
0 45 0 0 95 0 95 65 0 65 0 0 90 0 90 65 0 65 0 0 95 0 95 60 0 60 0 0 135 0
135 105 0 105 0 0 135 0 135 125 0 125 0 0 135 0 135 105 0 105 0 0 85 0 85
-100 0 -100 0 0 210 0 210 210 0 210 0 0 -130 0 -130 40 0 40 0 0 150 c0 143
1 150 20 150 19 0 20 7 20 175 l0 174 138 3 137 3 3 118 3 117 98 0 99 0 7 78
c3 42 7 88 8 102 2 24 5 25 75 28 l72 3 0 59 0 60 210 0 210 0 0 -45z m9750
-508 c0 -101 -3 -218 -6 -260 l-7 -77 -58 0 -59 0 0 -105 0 -105 -155 0 -155
0 0 -175 0 -175 -165 0 -165 0 0 -180 0 -180 -155 0 -155 0 0 -165 0 -165
-185 0 -185 0 0 -155 0 -155 -150 0 -150 0 0 -165 0 -165 -90 0 -90 0 0 -110
0 -110 -95 0 -95 0 0 -80 0 -80 -90 0 -90 0 0 -125 0 -125 -120 0 -120 0 0
-105 0 -105 -120 0 -120 0 0 -165 0 -164 -117 -3 -118 -3 -3 -162 -2 -163
-100 0 -100 0 0 -135 0 -135 -60 0 -59 0 -3 -92 -3 -93 -62 -3 -63 -3 0 -74 0
-75 -60 0 -60 0 0 -75 0 -75 -65 0 -65 0 0 -75 0 -75 -30 0 -30 0 0 -80 0 -80
-45 0 c-41 0 -45 -2 -45 -25 0 -16 6 -25 15 -25 8 0 15 5 15 10 0 7 73 9 213
8 l212 -3 3 -207 2 -208 -164 0 c-99 0 -167 -4 -171 -10 -7 -11 -304 -14 -457
-3 l-98 6 0 44 c0 41 -1 43 -30 43 l-30 0 0 270 0 270 35 0 c34 0 35 1 35 40
l0 40 45 0 45 0 0 85 c0 84 0 85 25 85 25 0 25 1 25 80 l0 80 65 0 64 0 3 73
3 72 63 3 62 3 0 74 0 75 60 0 60 0 0 75 0 75 60 0 60 0 0 95 0 95 105 0 105
0 0 135 0 135 120 0 120 0 0 165 0 165 115 0 115 0 0 165 0 165 125 0 125 0 0
105 0 104 88 3 87 3 3 122 3 122 92 3 92 3 3 78 3 77 89 0 90 0 0 110 0 110
150 0 150 0 0 165 0 165 183 2 182 3 3 153 3 152 149 0 150 0 0 165 0 165 170
0 170 0 0 100 0 100 -190 0 -190 0 0 210 0 210 210 0 209 0 3 -127 3 -128 133
-3 132 -3 0 41 0 40 -105 0 -105 0 0 210 0 209 118 3 117 3 3 72 3 72 52 4
c29 2 145 4 260 5 l207 2 0 -183z m-1420 -702 l0 -215 -210 0 -210 0 0 215 0
215 210 0 210 0 0 -215z m-6390 -265 l0 -210 -210 0 -210 0 0 210 0 210 210 0
210 0 0 -210z m-3610 -10 l0 -210 -210 0 -210 0 0 210 0 210 210 0 210 0 0
-210z m9460 0 l0 -210 -210 0 -210 0 0 210 0 210 210 0 210 0 0 -210z m-460
-280 l0 -210 -195 0 -195 0 0 -125 0 -125 -210 0 -210 0 0 210 0 210 195 0
195 0 0 125 0 125 210 0 210 0 0 -210z m-5840 -70 l0 -210 -210 0 -210 0 0
210 0 210 210 0 210 0 0 -210z m3310 -260 l0 -210 -210 0 -210 0 0 210 0 210
210 0 210 0 0 -210z m-3820 -130 l0 -210 -210 0 -210 0 0 -185 0 -185 -210 0
-210 0 0 210 0 210 210 0 210 0 0 185 0 185 210 0 210 0 0 -210z m5450 -100
l0 -210 -215 0 -215 0 0 210 0 210 215 0 215 0 0 -210z m-1785 -315 l0 -210
-210 0 -210 0 -3 200 c-1 110 0 205 3 212 3 11 49 13 212 11 l208 -3 0 -210z
m1155 -85 l0 -210 -215 0 -215 0 0 210 0 210 215 0 215 0 0 -210z m-640 -400
l0 -210 -210 0 -210 0 0 210 0 210 210 0 210 0 0 -210z m-790 -60 l0 -210
-210 0 -210 0 0 210 0 210 210 0 210 0 0 -210z m130 -430 l0 -210 -210 0 -210
0 0 210 0 210 210 0 210 0 0 -210z m-460 -200 l0 -210 -45 0 -45 0 0 -85 0
-86 -215 3 c-118 2 -215 0 -215 -4 0 -5 45 -8 100 -8 l100 0 0 -210 0 -210
-210 0 -210 0 0 70 0 70 -100 0 -100 0 0 210 0 210 210 0 210 0 0 145 0 145
50 0 50 0 0 85 0 85 210 0 210 0 0 -210z m-970 -755 l0 -205 160 0 160 0 0
-210 0 -210 -215 0 -215 0 0 205 0 205 -155 0 -155 0 0 -155 0 -155 -165 0
-165 0 0 -120 0 -120 -105 0 -105 0 0 -90 0 -89 -122 -3 -123 -3 -3 -92 -3
-93 -119 0 -120 0 0 -120 0 -120 -180 0 -180 0 0 -135 0 -135 -150 0 -150 0 0
-135 0 -134 -122 -3 -123 -3 -3 -122 -3 -123 -104 0 -105 0 0 -135 0 -135
-150 0 -150 0 0 -150 0 -150 -125 0 -125 0 0 -150 0 -150 -135 0 -135 0 0
-150 0 -150 -110 0 -110 0 0 -120 0 -120 -75 0 -75 0 0 -110 0 -110 -95 0 -95
0 0 -105 0 -105 -75 0 -75 0 0 -105 0 -105 -90 0 -90 0 0 -105 0 -105 -95 0
-95 0 0 -120 0 -120 -90 0 -90 0 0 -135 0 -135 -75 0 -75 0 0 -120 0 -120 -90
0 -89 0 -3 -102 -3 -103 -57 -3 -58 -3 0 -119 0 -120 -60 0 -59 0 -3 -102 -3
-103 -62 -3 -63 -3 0 -99 0 -99 -37 -3 -38 -3 -3 -102 -3 -103 -64 0 -65 0 0
-70 0 -70 -30 0 -30 0 0 -64 c0 -59 -2 -65 -22 -68 -21 -3 -23 -9 -26 -70 l-3
-68 -59 0 -60 0 0 -35 c0 -31 -3 -35 -25 -35 -24 0 -25 -3 -25 -55 l0 -55 -45
0 -45 0 0 -55 0 -55 -50 0 -50 0 0 -55 0 -55 85 0 85 0 0 55 0 55 95 0 95 0 0
35 0 35 135 0 135 0 0 60 0 60 105 0 105 0 0 65 0 65 120 0 120 0 0 110 0 110
120 0 120 0 0 75 0 75 105 0 105 0 0 90 0 90 120 0 120 0 0 105 0 105 65 0 65
0 0 45 0 45 75 0 75 0 0 95 0 95 105 0 105 0 0 105 0 105 90 0 90 0 0 120 0
120 90 0 90 0 0 105 0 105 105 0 105 0 0 120 0 120 75 0 75 0 0 105 0 105 50
0 50 0 0 65 0 65 90 0 90 0 0 105 0 105 75 0 75 0 0 90 0 90 65 0 65 0 0 80 0
80 75 0 75 0 0 90 0 90 75 0 75 0 0 120 0 120 90 0 89 0 3 153 3 152 108 3
107 3 0 149 0 150 210 0 210 0 0 -210 0 -209 -107 -3 -108 -3 -3 -152 -3 -153
-89 0 -90 0 0 -150 0 -150 -75 0 -75 0 0 -120 0 -120 -75 0 -75 0 0 -90 0 -89
-62 -3 -63 -3 -3 -77 -3 -78 -74 0 -75 0 0 -90 0 -89 -87 -3 -88 -3 -3 -102
-3 -103 -49 0 -50 0 0 -65 0 -64 -72 -3 -73 -3 -3 -102 -3 -102 -102 -3 -102
-3 -3 -117 -3 -118 -89 0 -90 0 0 -105 0 -104 -87 -3 -88 -3 -3 -117 -3 -117
-102 -3 -102 -3 -3 -102 -3 -103 -69 0 -69 0 -3 -92 -3 -93 -67 -3 -67 -3 -3
-47 -3 -47 -117 -3 -118 -3 0 -99 0 -99 -102 -3 -103 -3 -3 -92 -3 -93 -119 0
-120 0 0 -75 0 -75 -115 0 -115 0 0 -105 0 -105 -110 0 -110 0 0 -65 0 -65
-135 0 -135 0 0 -65 0 -65 -95 0 -95 0 0 -30 0 -29 -112 -3 -113 -3 -3 -52 -3
-53 -77 0 c-42 0 -107 -3 -144 -7 -67 -6 -68 -6 -68 -34 l0 -29 -167 0 c-93 0
-225 3 -295 7 l-127 6 -3 31 c-3 29 -6 31 -45 34 -42 3 -43 4 -43 38 0 27 -4
34 -20 34 -19 0 -20 7 -20 210 0 203 1 210 20 210 17 0 20 7 20 40 0 38 2 40
30 40 29 0 30 1 30 50 0 47 2 50 25 50 24 0 25 3 25 55 0 52 1 55 25 55 23 0
25 3 25 50 l0 49 63 3 c59 3 62 4 65 30 3 24 8 27 45 30 l42 3 3 58 c3 53 5
57 27 57 23 0 25 4 25 50 l0 50 60 0 60 0 0 34 c0 28 4 35 23 38 20 3 22 9 25
71 3 67 3 67 32 67 l30 0 0 65 0 65 65 0 65 0 0 70 0 70 40 0 40 0 0 105 0
105 60 0 59 0 3 103 3 102 63 3 62 3 0 104 0 105 55 0 54 0 3 118 3 117 93 3
92 3 0 99 0 100 75 0 75 0 0 120 0 120 90 0 90 0 0 135 0 134 93 3 92 3 3 118
3 117 89 0 90 0 0 105 0 105 75 0 74 0 3 108 3 107 93 3 92 3 0 104 0 105 75
0 75 0 0 105 0 105 110 0 110 0 0 120 0 120 135 0 135 0 0 150 0 150 120 0
120 0 0 150 0 150 155 0 155 0 0 150 0 150 105 0 105 0 0 140 0 140 125 0 125
0 0 120 0 120 150 0 150 0 0 135 0 135 180 0 180 0 0 135 0 135 120 0 120 0 0
120 0 120 120 0 119 0 3 93 3 92 108 3 107 3 0 94 0 95 165 0 165 0 0 120 0
120 210 0 210 0 0 150 0 150 210 0 210 0 0 -205z m6370 -75 l0 -210 -215 0
-215 0 0 210 0 210 215 0 215 0 0 -210z m-1030 -380 l0 -210 -210 0 -210 0 0
210 0 210 210 0 210 0 0 -210z m-1130 -300 l0 -210 -210 0 -210 0 0 210 0 210
210 0 210 0 0 -210z m-4200 -150 l0 -210 -210 0 -210 0 0 210 0 210 210 0 210
0 0 -210z m-330 -510 l0 -210 -210 0 -210 0 0 210 0 210 210 0 210 0 0 -210z
m-300 -485 l0 -215 -210 0 -210 0 0 215 0 215 210 0 210 0 0 -215z m-390 -570
l0 -215 -210 0 -210 0 0 215 0 215 210 0 210 0 0 -215z m4030 -665 c0 -6 37
-10 90 -10 l90 0 0 -55 c0 -52 1 -55 25 -55 l25 0 0 -260 0 -260 -45 0 -45 0
0 -60 c0 -57 -1 -60 -25 -60 -25 0 -25 -1 -25 -89 l0 -90 -32 -3 c-33 -3 -33
-3 -36 -65 l-3 -62 -47 -3 -47 -3 -3 -62 -3 -63 -104 0 -105 0 0 -100 0 -100
-60 0 -60 0 0 -80 0 -80 -110 0 -110 0 0 -55 0 -55 -120 0 -120 0 0 -90 0 -90
-105 0 -105 0 0 -90 0 -89 -122 -3 -123 -3 -3 -107 -3 -108 -149 0 -150 0 0
-105 0 -105 -210 0 -210 0 0 210 0 210 150 0 150 0 0 105 0 105 120 0 120 0 0
110 0 110 110 0 110 0 0 90 0 90 120 0 120 0 0 90 0 90 110 0 110 0 0 55 0 55
60 0 60 0 0 80 0 79 103 3 102 3 3 98 3 97 49 0 50 0 0 65 0 65 35 0 35 0 0
65 c0 63 1 65 25 65 22 0 25 5 25 33 l0 32 -185 -3 -185 -3 0 -94 0 -95 -195
0 -195 0 0 -120 0 -120 -210 0 -210 0 0 210 0 210 195 0 194 0 3 123 3 122
177 3 177 2 3 93 3 92 136 3 c127 2 137 4 142 22 5 19 15 20 216 20 134 0 211
-4 211 -10z m-10310 -675 c0 -22 4 -25 35 -25 l35 0 0 -210 c0 -133 -4 -210
-10 -210 -5 0 -10 -22 -10 -50 l0 -50 -54 0 c-29 0 -74 -3 -100 -6 l-46 -7 0
-53 0 -54 -120 0 -120 0 0 -85 c0 -78 -2 -85 -20 -85 -17 0 -20 -7 -20 -50 l0
-50 -210 0 -210 0 0 210 c0 203 1 210 20 210 17 0 20 7 20 50 l0 50 120 0 120
0 0 85 0 85 30 0 c30 0 30 1 30 55 0 30 5 55 10 55 6 0 10 20 10 45 0 45 0 45
35 45 33 0 35 2 35 35 l0 35 210 0 210 0 0 -25z m8820 -345 l0 -210 -210 0
-210 0 0 210 0 210 210 0 210 0 0 -210z m-480 -420 l0 -210 -210 0 -210 0 0
210 0 210 210 0 210 0 0 -210z m-9262 -177 l82 -6 0 -208 0 -209 -210 0 -210
0 0 -154 c0 -145 -1 -154 -20 -159 -18 -5 -20 -14 -20 -81 l0 -76 -207 2 -208
3 -3 205 c-2 171 0 207 12 216 10 7 16 33 18 80 l3 69 158 3 157 3 0 159 0
160 183 0 c100 0 219 -3 265 -7z m8902 -283 l0 -210 -210 0 -210 0 0 210 0
210 210 0 210 0 0 -210z m-390 -480 l0 -210 -210 0 -210 0 0 210 0 210 210 0
210 0 0 -210z m-9380 -95 l0 -85 40 0 40 0 0 -210 0 -210 -162 -2 -163 -3 -3
-207 -2 -208 -150 0 -150 0 0 -185 0 -185 -170 0 -170 0 0 -210 0 -210 -135 0
-135 0 0 -180 0 -180 -210 0 -210 0 0 210 0 210 135 0 135 0 0 25 0 25 -145 0
-145 0 0 -170 0 -170 -210 0 -210 0 0 210 0 210 165 0 165 0 0 170 0 170 209
0 210 0 3 -52 3 -53 145 0 145 0 3 38 3 37 -135 0 -136 0 0 210 0 210 185 0
185 0 0 200 0 200 210 0 210 0 0 -55 0 -55 55 0 55 0 0 85 0 85 -40 0 -40 0 0
210 0 210 210 0 210 0 0 -85z m9930 -190 l0 -215 -180 0 -180 0 0 -150 0 -150
-210 0 -210 0 0 210 0 210 180 0 180 0 0 148 c0 82 3 152 7 155 3 4 98 7 210
7 l203 0 0 -215z m-1005 -230 l0 -210 -207 -3 -208 -2 0 215 0 215 208 -2 207
-3 0 -210z m75 -495 l0 -210 -210 0 -210 0 0 210 0 210 210 0 210 0 0 -210z
m-460 -20 l0 -210 -25 0 -25 0 -2 -172 -3 -173 -142 -3 -143 -3 0 -54 0 -55
-160 0 -160 0 0 -144 0 -145 -32 -3 -33 -3 -3 -87 -3 -88 -174 0 -175 0 0
-210 0 -210 -155 0 -155 0 0 -210 0 -210 -210 0 -210 0 0 210 0 209 153 3 152
3 3 83 3 82 -86 0 -85 0 0 210 0 210 210 0 210 0 0 -85 0 -85 50 0 50 0 0 209
0 210 33 3 32 3 3 88 3 87 159 0 160 0 0 145 0 145 140 0 139 0 3 58 c3 50 6
57 26 60 22 3 22 5 22 173 l0 169 215 0 215 0 0 -210z m5000 -170 l0 -210 -25
0 c-23 0 -25 -3 -25 -50 l0 -50 -90 0 -90 0 0 -135 0 -135 -143 0 c-79 0 -232
3 -340 7 l-197 6 0 209 0 209 220 -3 220 -3 0 133 0 132 25 0 c23 0 25 3 25
50 l0 50 210 0 210 0 0 -210z m-930 -810 l0 -209 -77 -3 -78 -3 -3 -82 -3 -83
-209 0 -210 0 0 210 0 210 80 0 80 0 0 78 c0 43 3 82 7 85 3 4 98 7 210 7
l203 0 0 -210z m-14690 -210 l0 -210 -210 0 -210 0 0 210 0 210 210 0 210 0 0
-210z m560 -190 l0 -210 -210 0 -210 0 0 210 0 210 210 0 210 0 0 -210z
m13370 -29 c0 -176 -2 -210 -15 -215 -13 -4 -15 -37 -15 -206 l0 -200 -210 0
-210 0 0 210 c0 180 2 210 15 210 13 0 15 29 15 205 l0 205 210 0 210 0 0
-209z m-14350 -231 l0 -210 -210 0 -210 0 0 210 0 210 210 0 210 0 0 -210z
m9040 -20 l0 -210 -210 0 -210 0 0 210 0 210 210 0 210 0 0 -210z m4650 -30
l0 -210 -210 0 -210 0 0 210 0 210 210 0 210 0 0 -210z m-490 -210 l0 -210
-210 0 -210 0 0 210 0 210 210 0 210 0 0 -210z m-540 -220 l0 -210 -210 0
-210 0 0 -110 0 -110 -210 0 -210 0 0 210 0 210 210 0 210 0 0 110 0 110 210
0 210 0 0 -210z m-8130 -89 l0 -210 -47 -3 c-41 -3 -48 -6 -51 -25 -3 -22 -8
-23 -83 -23 l-79 0 0 -120 0 -120 -115 0 -115 0 0 -150 0 -150 -135 0 -135 0
0 -145 0 -145 -90 0 -90 0 0 -125 0 -125 -120 0 -120 0 0 -115 0 -115 -90 0
-89 0 -3 -137 -3 -138 -92 -3 -93 -3 0 -104 0 -105 -75 0 -75 0 0 -120 0 -119
-92 -3 -93 -3 -3 -172 -2 -172 -48 -3 -47 -3 -3 -92 -3 -93 -29 0 c-28 0 -30
-2 -30 -40 l0 -40 55 0 55 0 0 60 0 60 210 0 210 0 0 -210 0 -210 -55 0 -55 0
0 -60 0 -60 -220 0 c-189 0 -220 -2 -220 -15 0 -13 -30 -15 -210 -15 -203 0
-210 1 -210 20 0 16 -7 20 -35 20 l-35 0 0 210 c0 203 1 210 20 210 18 0 20 7
20 59 0 54 2 60 23 63 20 3 22 9 25 81 l3 77 29 0 30 0 0 105 0 105 50 0 50 0
0 95 0 95 90 0 90 0 0 175 0 175 80 0 80 0 0 120 0 120 90 0 89 0 3 108 3 107
88 3 87 3 0 134 0 135 125 0 125 0 0 25 0 25 -165 0 -165 0 0 210 0 210 135 0
135 0 0 110 0 110 195 0 195 0 0 145 0 144 118 3 117 3 3 72 3 72 52 3 52 3 3
68 3 67 79 0 c74 0 79 1 82 23 3 19 10 22 51 25 39 3 47 6 47 23 0 18 9 19
210 19 l210 0 0 -209z m7230 -251 l0 -210 -170 0 -170 0 0 -50 0 -50 -210 0
-210 0 0 210 0 210 168 2 167 3 3 48 3 47 210 0 209 0 0 -210z m2020 -20 l0
-210 -210 0 -210 0 0 210 0 210 210 0 210 0 0 -210z m-2922 -112 l2 -208 -215
0 -215 0 0 210 0 210 213 -2 212 -3 3 -207z m-568 -38 l0 -210 -210 0 -210 0
0 210 0 210 210 0 210 0 0 -210z m3060 -340 l0 -210 -210 0 -210 0 0 210 0
210 210 0 210 0 0 -210z m-10540 -400 l0 -210 -165 0 -165 0 0 -105 0 -105
-105 0 -105 0 0 -75 0 -74 -82 -3 -83 -3 -3 -62 -3 -63 -59 0 -60 0 0 -85 0
-85 -210 0 -210 0 0 210 0 210 60 0 60 0 0 85 0 85 80 0 80 0 0 65 0 65 110 0
110 0 0 75 0 75 165 0 165 0 0 105 0 105 210 0 210 0 0 -210z m10145 -115 l0
-210 -210 0 -210 0 -3 200 c-1 110 0 205 3 212 3 11 49 13 212 11 l208 -3 0
-210z m4315 -165 l0 -210 -210 0 -210 0 0 210 0 210 210 0 210 0 0 -210z
m-4680 -350 l0 -210 -210 0 -210 0 0 210 0 210 210 0 210 0 0 -210z m-5660
-15 l0 -215 -60 0 -60 0 -2 -207 -3 -208 -210 0 -210 0 -3 207 -2 207 62 3 63
3 3 213 2 212 210 0 210 0 0 -215z m-1530 -25 l0 -210 -210 0 -210 0 0 210 0
210 210 0 210 0 0 -210z m11300 -5 l0 -215 -210 0 -210 0 0 215 0 215 210 0
210 0 0 -215z m-11780 -235 l0 -210 -210 0 -210 0 0 210 0 210 210 0 210 0 0
-210z m-3420 -20 l0 -210 -210 0 -210 0 0 210 0 210 210 0 210 0 0 -210z
m14680 -110 l0 -210 -210 0 -210 0 0 210 0 210 210 0 210 0 0 -210z m-3920
-70 l0 -210 -155 0 -155 0 0 -180 0 -179 -107 -3 -108 -3 -3 -162 -2 -163
-105 0 -105 0 0 -165 0 -165 -105 0 -105 0 0 -179 c0 -109 -4 -182 -10 -186
-16 -10 -13 -95 4 -95 13 0 26 -96 26 -197 l0 -43 55 0 c44 0 55 -3 55 -16 0
-15 9 -16 61 -10 34 3 129 6 210 6 l149 0 0 80 0 80 135 0 135 0 0 65 0 65 80
0 80 0 0 35 0 35 120 0 120 0 0 60 0 60 160 0 160 0 0 80 0 80 140 0 140 0 0
45 0 45 175 0 175 0 0 75 0 75 150 0 150 0 0 95 0 95 210 0 210 0 0 -210 0
-210 -150 0 -150 0 0 -95 0 -95 -175 0 -175 0 0 -75 0 -74 -137 -3 -138 -3 -3
-47 -3 -48 -160 0 -159 0 0 -75 0 -75 -120 0 -120 0 0 -60 0 -60 -80 0 -80 0
0 -35 0 -35 -130 0 -130 0 0 -65 0 -65 -170 0 -170 0 0 -78 0 -79 -107 -6
c-58 -4 -132 -7 -165 -7 -32 0 -58 -4 -58 -10 0 -6 -77 -10 -210 -10 -203 0
-210 1 -210 20 0 19 -7 20 -89 20 l-90 0 -3 27 c-3 26 -7 28 -55 31 l-53 3 0
93 c0 58 -4 96 -12 104 -7 7 -38 12 -69 12 l-58 0 -3 53 c-3 51 -4 52 -35 55
l-33 3 0 173 c0 95 3 221 7 279 l6 107 54 0 c50 0 53 1 53 25 0 21 5 25 30 25
l30 0 0 95 0 94 108 3 107 3 3 183 2 182 105 0 105 0 0 165 0 165 110 0 110 0
0 165 0 165 150 0 150 0 0 180 0 180 215 0 215 0 0 -210z m-8020 -130 l0 -210
-170 0 -170 0 0 -110 0 -110 -195 0 -195 0 0 -90 0 -90 -210 0 -210 0 0 210 0
210 195 0 195 0 0 90 0 90 168 2 167 3 3 108 3 107 209 0 210 0 0 -210z
m-3440 -110 l0 -210 -180 0 -180 0 0 -125 0 -125 -210 0 -210 0 0 210 0 210
180 0 180 0 0 125 0 125 210 0 210 0 0 -210z m14900 0 l0 -210 -210 0 -210 0
0 210 0 210 210 0 210 0 0 -210z m-455 -285 l0 -210 -210 0 -210 0 -3 200 c-1
110 0 205 3 212 3 11 49 13 212 11 l208 -3 0 -210z m-510 -220 l0 -210 -210 0
-210 0 -3 200 c-1 110 0 205 3 212 3 11 49 13 212 11 l208 -3 0 -210z"/>
<path d="M13990 21770 c0 -6 38 -10 95 -10 57 0 95 4 95 10 0 6 -38 10 -95 10
-57 0 -95 -4 -95 -10z"/>
<path d="M7283 21740 c0 -36 2 -50 4 -32 2 17 2 47 0 65 -2 17 -4 3 -4 -33z"/>
<path d="M3950 16020 c0 -11 7 -20 15 -20 8 0 15 9 15 20 0 11 -7 20 -15 20
-8 0 -15 -9 -15 -20z"/>
<path d="M2397 8573 c-4 -3 -7 -15 -7 -25 0 -16 9 -18 75 -18 73 0 75 1 75 25
0 24 -2 25 -68 25 -38 0 -72 -3 -75 -7z"/>
<path d="M4250 5620 l0 -40 40 0 40 0 0 40 0 40 -40 0 -40 0 0 -40z"/>
<path d="M3970 5350 c0 -17 7 -20 45 -20 38 0 45 3 45 20 0 17 -7 20 -45 20
-38 0 -45 -3 -45 -20z"/>
<path d="M0 23119 c0 -1728 1 -1820 18 -1817 14 3 17 17 20 91 l3 87 44 0 45
0 0 90 0 90 30 0 30 0 0 80 0 80 55 0 55 0 0 75 0 75 45 0 45 0 0 85 c0 67 3
87 15 91 12 5 15 27 15 110 l0 104 30 0 30 0 0 90 0 90 55 0 55 0 0 90 c0 53
4 90 10 90 6 0 10 42 10 105 l0 105 35 0 35 0 0 99 c0 90 2 99 20 104 18 5 20
14 20 96 0 72 3 91 14 91 12 0 15 52 18 313 1 171 0 314 -4 315 -5 2 -8 33 -8
68 0 48 -4 66 -15 70 -11 5 -15 22 -15 65 l0 59 -35 0 -35 0 0 65 0 65 -30 0
c-30 0 -30 1 -30 55 l0 55 -50 0 -49 0 -3 63 c-3 59 -4 62 -30 65 -26 3 -28 6
-28 53 0 27 -4 49 -10 49 -5 0 -10 9 -10 20 0 18 -7 20 -60 20 l-60 0 0 45 0
44 -62 3 -63 3 -3 53 -3 52 -60 0 c-33 0 -59 4 -59 10 0 6 -7 10 -15 10 -13 0
-15 -209 -15 -1821z"/>
<path d="M1430 19570 l0 -89 -122 -3 -123 -3 -3 -47 -3 -48 -160 0 -159 0 0
-75 0 -75 -110 0 -110 0 0 -50 0 -49 -138 -3 -137 -3 -3 -62 -3 -63 -134 0
-135 0 0 -45 0 -45 -45 0 -45 0 0 -570 0 -570 45 0 45 0 0 155 0 155 110 0
110 0 0 120 0 120 120 0 120 0 0 135 0 135 95 0 95 0 0 90 0 89 93 3 92 3 3
108 3 107 89 0 90 0 0 105 0 104 108 3 107 3 3 123 3 122 104 0 105 0 0 105 0
105 -55 0 -55 0 0 -90z"/>
<path d="M19010 15775 c0 -41 2 -45 24 -45 23 0 25 -5 28 -47 l3 -48 68 -3 67
-3 0 96 0 95 -95 0 -95 0 0 -45z"/>
<path d="M7350 5160 c0 -20 5 -30 15 -30 10 0 15 10 15 30 0 20 -5 30 -15 30
-10 0 -15 -10 -15 -30z"/>
<path d="M17887 3944 c-4 -4 -7 -54 -7 -111 l0 -104 73 3 72 3 0 105 0 105
-65 3 c-36 2 -69 0 -73 -4z"/>
<path d="M17727 3673 c-4 -3 -7 -46 -7 -95 0 -72 3 -88 15 -88 12 0 15 17 15
95 0 87 -5 107 -23 88z"/>
<path d="M17400 3230 c0 -15 7 -20 25 -20 18 0 25 5 25 20 0 15 -7 20 -25 20
-18 0 -25 -5 -25 -20z"/>
<path d="M0 415 l0 -415 1070 0 c1063 0 1070 0 1070 20 0 18 -7 20 -65 20
l-65 0 0 50 0 50 -85 0 -85 0 0 70 0 70 -70 0 -70 0 0 40 0 40 -100 0 c-60 0
-100 4 -100 10 0 6 -25 10 -55 10 -54 0 -55 0 -55 30 l0 29 -72 3 c-71 3 -73
4 -76 31 -3 26 -5 27 -63 27 l-59 0 0 40 0 40 -130 0 -130 0 0 40 c0 39 -1 40
-35 40 -19 0 -35 5 -35 10 0 6 -42 10 -105 10 l-105 0 0 35 0 35 -115 0 c-108
0 -115 1 -115 20 0 18 -7 20 -75 20 -43 0 -75 4 -75 10 0 6 -30 10 -70 10 -40
0 -70 4 -70 10 0 6 -13 10 -30 10 l-30 0 0 -415z"/>
</g>
</svg>
