<?xml version="1.0" encoding="UTF-8" standalone="no"?>
<!DOCTYPE svg PUBLIC "-//W3C//DTD SVG 1.1//EN" "http://www.w3.org/Graphics/SVG/1.1/DTD/svg11.dtd">
<svg xmlns="http://www.w3.org/2000/svg" xmlns:xlink="http://www.w3.org/1999/xlink" version="1.1" width="328pt" height="300pt" viewBox="0 0 328 300">
<g enable-background="new">
<g id="Layer-1" data-name="Layer 1">
<path transform="matrix(1,0,0,-1,144.8696,26.796906)" d="M 0 0 L -2.058 .892 L -7.294 1.282 L -8.666 1.917 L -9.074 2.375 L -9.489 3.37 L -9.376 4.663 L -8.676 5.706 L -7.352 6.43 L -5.492 6.795 L -3.262 6.646 L -1.762 6.109 L -1.026 7.966 L -2.742 8.607 L -5.612 8.777 L -8.084 8.292 L -10.111 7.16 L -11.308 5.287 L -11.551 3.16 L -10.842 1.294 L -9.82 .199 L -7.809 -.702 L -2.748 -1.077 L -1.516 -1.496 L -.762 -2.472 L -.484 -3.885 L -.68 -4.632 L -1.116 -5.403 L -2.747 -6.432 L -4.772 -6.83 L -7.016 -6.61 L -8.111 -6.141 L -8.669 -5.664 L -9.813 -7.306 L -9.143 -7.859 L -7.536 -8.571 L -4.817 -8.844 L -2.039 -8.298 L .343 -6.853 L 1.219 -5.335 L 1.558 -3.949 L 1.109 -1.665 Z " fill="#0e2963"/>
<path transform="matrix(1,0,0,-1,166.4551,15.836395)" d="M 0 0 L -5.511 -12.954 L -11.658 -.289 L -13.625 -.338 L -13.202 -17.393 L -11.211 -17.343 L -11.521 -4.846 L -6.46 -15.329 L -4.446 -15.279 L .089 -4.558 L .398 -17.055 L 2.39 -17.006 L 1.967 .049 Z " fill="#0e2963"/>
<path transform="matrix(1,0,0,-1,179.7178,26.884797)" d="M 0 0 L 3.41 6.558 L 4.796 -.703 Z M 3.062 9.641 L -5.562 -6.34 L -3.472 -6.646 L -.974 -1.846 L 5.199 -2.75 L 6.215 -8.065 L 8.305 -8.371 L 4.629 9.411 Z " fill="#0e2963"/>
<path transform="matrix(1,0,0,-1,206.1855,27.747986)" d="M 0 0 L -.807 -1.234 L -1.775 -2.017 L -3.357 -2.259 L -8.337 -.729 L -6.567 5.031 L -1.886 3.593 L -.651 2.787 L .032 1.497 Z M -1.102 5.411 L -7.895 7.498 L -12.906 -8.819 L -11.002 -9.404 L -8.915 -2.611 L -4.531 -3.958 L -3.658 -11.66 L -1.547 -12.309 L -2.521 -4.199 L -.948 -3.903 L .684 -2.596 L 1.994 -.538 L 2.041 1.985 L .864 4.205 Z " fill="#0e2963"/>
<path transform="matrix(1,0,0,-1,214.3789,27.729493)" d="M 0 0 L 4.115 -1.906 L -2.229 -15.602 L -.422 -16.439 L 5.923 -2.743 L 10.125 -4.69 L 10.953 -2.904 L .827 1.786 Z " fill="#0e2963"/>
<path transform="matrix(1,0,0,-1,249.8408,51.0605)" d="M 0 0 L .061 -1.256 L 2.007 -1.108 L 1.979 .339 L 1.671 1.673 L .356 4.012 L -1.691 5.679 L -4.343 6.413 L -6.643 6.211 L -8.811 5.221 L -10.497 3.871 L -12.725 1.135 L -13.675 -.754 L -14.204 -3.078 L -13.987 -5.359 L -12.707 -7.855 L -10.659 -9.522 L -8.103 -10.334 L -6.733 -10.365 L -5.312 -10.099 L -5.561 -8.163 L -6.784 -8.374 L -7.74 -8.369 L -9.64 -7.813 L -11.204 -6.541 L -12.028 -4.817 L -12.177 -3.211 L -11.81 -1.467 L -11.073 .007 L -9.044 2.502 L -7.749 3.521 L -6.101 4.254 L -4.479 4.42 L -2.673 3.94 L -1.109 2.667 L -.198 .935 Z " fill="#0e2963"/>
<path transform="matrix(1,0,0,-1,258.0605,71.6514)" d="M 0 0 L -1.723 -.453 L -3.334 -.385 L -5.096 .354 L -6.38 1.78 L -6.961 3.646 L -6.859 5.255 L -6.21 6.937 L -5.291 8.248 L -2.901 10.399 L -1.447 11.223 L .293 11.692 L 1.92 11.606 L 3.631 10.854 L 4.947 9.391 L 5.516 7.611 L 5.43 5.984 L 4.781 4.302 L 3.826 2.959 L 1.436 .808 Z M 5.266 1.575 L 6.531 3.326 L 7.412 5.54 L 7.5 7.846 L 6.635 10.458 L 4.869 12.419 L 2.363 13.554 L .061 13.709 L -2.234 13.065 L -4.109 11.992 L -6.73 9.632 L -7.96 7.913 L -8.842 5.699 L -8.979 3.413 L -8.1 .75 L -6.334 -1.212 L -3.777 -2.367 L -1.489 -2.47 L .805 -1.827 L 2.644 -.785 Z " fill="#0e2963"/>
<path transform="matrix(1,0,0,-1,279.8457,82.33591)" d="M 0 0 L -11.689 -7.383 L -5.051 7.996 L -5.961 9.437 L -20.39 .324 L -19.326 -1.361 L -8.123 5.714 L -14.507 -8.992 L -13.365 -10.798 L 1.063 -1.685 Z " fill="#0e2963"/>
<path transform="matrix(1,0,0,-1,287.3066,102.215808)" d="M 0 0 L 1.803 .788 L -2.668 11.013 L -4.471 10.225 L -2.653 6.069 L -16.484 .022 L -15.686 -1.803 L -1.855 4.244 Z " fill="#0e2963"/>
<path transform="matrix(1,0,0,-1,290.4111,111.4077)" d="M 0 0 L 1.308 -4.719 L 1.292 -6.193 L .573 -7.463 L -.706 -8.241 L -2.18 -8.226 L -3.36 -7.831 L -4.415 -6.628 L -5.806 -1.609 Z M -7.703 -2.134 L -6.479 -6.552 L -12.499 -11.434 L -11.909 -13.562 L -5.601 -8.376 L -4.505 -9.542 L -2.525 -10.214 L -.085 -10.211 L 2.065 -8.893 L 3.303 -6.707 L 3.262 -4.402 L 1.365 2.445 L -15.082 -2.111 L -14.55 -4.031 Z " fill="#0e2963"/>
<path transform="matrix(1,0,0,-1,294.1436,134.3755)" d="M 0 0 L -6.649 -3.233 L -7.223 1.581 Z M -14.546 3.199 L -9.259 2.04 L -8.521 -4.157 L -13.388 -6.525 L -13.138 -8.623 L 3.073 -.432 L 2.886 1.141 L -14.796 5.296 Z " fill="#0e2963"/>
<path transform="matrix(1,0,0,-1,297.1865,150.3433)" d="M 0 0 L -1.563 1.697 L -3.671 2.808 L -5.771 3.319 L -9.296 3.411 L -11.371 3.009 L -13.534 2.009 L -15.206 .445 L -16.401 -2.092 L -16.47 -4.731 L -15.552 -7.251 L -14.739 -8.352 L -13.661 -9.317 L -12.28 -7.936 L -13.194 -7.096 L -13.775 -6.337 L -14.495 -4.495 L -14.442 -2.479 L -13.582 -.774 L -12.401 .324 L -10.797 1.098 L -9.181 1.416 L -5.966 1.332 L -4.368 .93 L -2.782 .073 L -1.661 -1.109 L -.938 -2.832 L -.991 -4.846 L -1.806 -6.625 L -2.425 -7.354 L -3.382 -8.168 L -2.075 -9.62 L -.948 -8.712 L -.08 -7.655 L .969 -5.186 L 1.038 -2.547 Z " fill="#0e2963"/>
<path transform="matrix(1,0,0,-1,294.4336,171.0137)" d="M 0 0 L -14.885 2.506 L -15.216 .541 L -.33 -1.964 L -1.099 -6.531 L .842 -6.857 L 2.693 4.146 L .754 4.474 Z " fill="#0e2963"/>
<path transform="matrix(1,0,0,-1,284.1445,202.4414)" d="M 0 0 L -7.369 .576 L -5.428 5.019 Z M -10.924 10.119 L -6.951 6.444 L -9.451 .728 L -14.846 1.148 L -15.691 -.787 L 2.432 -1.928 L 3.066 -.477 L -10.078 12.054 Z " fill="#0e2963"/>
<path transform="matrix(1,0,0,-1,268.7803,209.1641)" d="M 0 0 L -2.784 -.229 L -5.379 -2.225 L -6.52 -4.03 L -7.206 -7.23 L -6.216 -9.844 L -5.058 -11.199 L 5.252 -17.711 L 6.315 -16.026 L -3.771 -9.656 L -4.517 -8.815 L -5.181 -7.034 L -4.688 -4.818 L -3.882 -3.539 L -2.091 -2.143 L -.197 -1.977 L .882 -2.289 L 10.969 -8.66 L 12.032 -6.975 L 1.724 -.464 Z " fill="#0e2963"/>
<path transform="matrix(1,0,0,-1,265.2988,234.8721)" d="M 0 0 L -2.598 -2.928 L -4.464 -3.839 L -6.074 -3.918 L -7.783 -3.493 L -9.363 -2.669 L -11.357 -.901 L -12.348 .587 L -12.989 2.215 L -13.101 3.79 L -12.404 5.804 L -9.824 8.714 Z M -14.133 6.823 L -15.127 4.11 L -14.969 1.757 L -14.089 -.436 L -12.859 -2.232 L -10.506 -4.319 L -8.575 -5.326 L -6.294 -5.938 L -3.938 -5.813 L -1.363 -4.503 L 2.795 .185 L -9.975 11.511 Z " fill="#0e2963"/>
<path transform="matrix(1,0,0,-1,240.9277,238.16211)" d="M 0 0 L 11.338 -12.759 L 12.826 -11.436 L 1.49 1.323 Z " fill="#0e2963"/>
<path transform="matrix(1,0,0,-1,241.7295,256.8154)" d="M 0 0 L -8.792 12.266 L -10.41 11.105 L -1.618 -1.16 L -5.382 -3.858 L -4.236 -5.457 L 4.831 1.042 L 3.686 2.642 Z " fill="#0e2963"/>
<path transform="matrix(1,0,0,-1,228.1797,260.8027)" d="M 0 0 L -1.293 .757 L -3.479 1.045 L -8.438 -.044 L -9.736 .004 L -10.739 .725 L -11.409 1.999 L -11.436 2.771 L -11.238 3.634 L -9.97 5.088 L -8.143 6.049 L -5.93 6.48 L -4.746 6.344 L -4.074 6.046 L -3.447 7.947 L -4.249 8.285 L -5.992 8.508 L -8.677 7.991 L -11.183 6.673 L -13.051 4.605 L -13.457 2.901 L -13.385 1.476 L -12.301 -.585 L -10.762 -1.863 L -8.533 -2.129 L -3.404 -1.004 L -1.908 -1.221 L -1.386 -1.542 L -.703 -2.376 L -.441 -3.648 L -.813 -4.848 L -1.876 -5.921 L -3.554 -6.804 L -5.733 -7.299 L -7.324 -7.213 L -7.498 -9.203 L -5.67 -9.326 L -2.871 -8.668 L -.641 -7.495 L .978 -5.83 L 1.589 -3.692 L 1.213 -1.586 Z " fill="#0e2963"/>
<clipPath id="cp0">
<path transform="matrix(1,0,0,-1,0,300)" d="M 0 300 L 328 300 L 328 0 L 0 0 Z "/>
</clipPath>
<g clip-path="url(#cp0)">
<path transform="matrix(1,0,0,-1,82.4097,167.168)" d="M 0 0 C -3.264 0 -5.39 2.277 -5.39 6.453 L -5.39 29.454 L 6.073 29.454 L 6.073 33.25 L -5.39 33.25 L -5.39 39.626 L -7.515 39.626 C -8.654 34.084 -11.615 32.035 -17.08 31.58 L -17.08 29.454 L -9.337 29.454 L -9.337 5.77 C -9.337 -.076 -6.225 -3.492 -.835 -3.492 C 2.885 -3.492 5.314 -1.974 8.502 2.354 L 7.136 3.568 C 4.631 .986 2.581 0 0 0 " fill="#0e2963"/>
<path transform="matrix(1,0,0,-1,109.7402,168.5352)" d="M 0 0 C -8.426 0 -12.146 8.73 -12.146 17.461 C -12.146 29.606 -5.694 33.099 -.456 33.099 C 7.971 33.099 11.69 24.369 11.69 15.639 C 11.69 3.492 5.238 0 0 0 M -.076 35.528 C -10.021 35.528 -16.929 27.709 -16.929 16.474 C -16.929 5.314 -10.172 -2.429 -.38 -2.429 C 9.565 -2.429 16.473 5.391 16.473 16.625 C 16.473 27.785 9.717 35.528 -.076 35.528 " fill="#0e2963"/>
<path transform="matrix(1,0,0,-1,136.4644,162.3857)" d="M 0 0 C -2.202 0 -4.099 -1.594 -4.099 -4.022 C -4.099 -6.528 -2.202 -8.198 0 -8.198 C 2.277 -8.198 4.175 -6.528 4.175 -4.022 C 4.175 -1.594 2.277 0 0 0 " fill="#0e2963"/>
<path transform="matrix(1,0,0,-1,181.4824,135.6646)" d="M 0 0 C 4.023 -.076 5.237 -.987 5.237 -2.732 C 5.237 -4.023 5.01 -5.617 3.416 -9.944 L -3.797 -29.605 L -11.312 -7.971 C -12.07 -5.769 -12.45 -4.175 -12.45 -2.96 C -12.45 -.683 -11.084 -.076 -7.288 0 L -7.288 1.746 L -22.471 1.746 L -22.471 0 C -18.827 -.152 -17.916 -.987 -16.322 -5.465 L -15.41 -7.971 L -24.065 -29.833 L -32.719 -5.465 C -33.099 -4.403 -33.326 -3.568 -33.326 -2.809 C -33.326 -.987 -31.96 -.076 -28.012 0 L -28.012 1.746 L -41.525 1.746 L -41.525 0 C -39.399 0 -38.64 -1.139 -36.742 -6.376 L -26.342 -34.692 L -23.306 -34.692 L -14.196 -11.462 L -6.074 -34.692 L -3.037 -34.692 L 7.363 -5.997 C 8.881 -1.897 9.717 -.228 12.069 0 L 12.069 1.746 L 0 1.746 Z " fill="#0e2963"/>
<path transform="matrix(1,0,0,-1,212.5332,167.168)" d="M 0 0 C -3.264 0 -5.39 2.277 -5.39 6.453 L -5.39 29.454 L 6.073 29.454 L 6.073 33.25 L -5.39 33.25 L -5.39 39.626 L -7.516 39.626 C -8.654 34.084 -11.615 32.035 -17.08 31.58 L -17.08 29.454 L -9.337 29.454 L -9.337 5.77 C -9.337 -.076 -6.225 -3.492 -.835 -3.492 C 2.885 -3.492 5.314 -1.974 8.502 2.354 L 7.136 3.568 C 4.631 .986 2.581 0 0 0 " fill="#0e2963"/>
<path transform="matrix(1,0,0,-1,245.709,168.1543)" d="M 0 0 C -8.883 .379 -10.248 1.29 -10.248 6.452 L -10.248 30.44 L 0 30.44 L 0 34.236 L -10.324 34.236 L -10.324 35.754 C -10.324 44.484 -5.693 50.633 .91 50.633 C 2.201 50.633 2.96 50.557 3.34 50.33 C 4.326 48.963 4.402 46.913 5.086 45.395 C 5.845 43.725 6.908 42.966 8.426 42.966 C 10.627 42.966 12.146 44.484 12.146 46.686 C 12.146 50.557 8.426 52.91 2.201 52.91 C -7.819 52.91 -13.816 46.002 -14.196 34.008 L -21.636 32.11 L -21.636 30.44 L -14.196 30.44 L -14.196 6.452 C -14.196 1.214 -15.184 .303 -21.636 0 L -21.636 -1.746 L 0 -1.746 Z " fill="#0e2963"/>
<path transform="matrix(1,0,0,-1,195.2344,274.1904)" d="M 0 0 L -1.033 1.085 L -3.054 1.965 L -8.12 2.288 L -9.355 2.693 L -10.121 3.663 L -10.412 5.072 L -10.225 5.822 L -9.797 6.597 L -8.176 7.644 L -6.154 8.062 L -3.908 7.866 L -2.809 7.407 L -2.246 6.936 L -1.118 8.591 L -1.795 9.137 L -3.409 9.831 L -6.131 10.077 L -8.904 9.502 L -11.271 8.032 L -12.131 6.505 L -12.455 5.114 L -11.983 2.835 L -10.856 1.183 L -8.789 .312 L -3.549 -.024 L -2.17 -.646 L -1.758 -1.1 L -1.332 -2.089 L -1.432 -3.384 L -2.121 -4.435 L -3.438 -5.173 L -5.295 -5.558 L -7.525 -5.431 L -9.031 -4.909 L -9.748 -6.773 L -8.025 -7.397 L -5.154 -7.538 L -2.687 -7.026 L -.67 -5.874 L .508 -3.987 L .729 -1.858 Z " fill="#0e2963"/>
<path transform="matrix(1,0,0,-1,173.9512,266.7266)" d="M 0 0 L .437 -12.497 L -4.73 -2.063 L -6.746 -2.133 L -11.172 -12.903 L -11.609 -.406 L -13.6 -.476 L -13.003 -17.53 L -11.037 -17.461 L -5.656 -4.449 L .621 -17.054 L 2.588 -16.984 L 1.991 .07 Z " fill="#0e2963"/>
<path transform="matrix(1,0,0,-1,146.1768,279.8574)" d="M 0 0 L -1.459 7.245 L 3.343 6.592 Z M 4.297 8.447 L -1.884 9.289 L -2.954 14.592 L -5.046 14.876 L -1.189 -2.864 L .38 -3.078 L 8.837 12.987 L 6.746 13.271 Z " fill="#0e2963"/>
<path transform="matrix(1,0,0,-1,129.688,277.6338)" d="M 0 0 L -4.694 1.389 L -5.936 2.181 L -6.633 3.464 L -6.616 4.96 L -5.823 6.201 L -4.863 6.993 L -3.285 7.253 L 1.708 5.776 Z M 2.266 7.663 L -2.129 8.962 L -3.083 16.651 L -5.2 17.277 L -4.141 9.183 L -5.709 8.87 L -7.327 7.547 L -8.615 5.476 L -8.635 2.954 L -7.436 .748 L -5.459 -.437 L 1.352 -2.452 L 6.19 13.909 L 4.281 14.474 Z " fill="#0e2963"/>
<path transform="matrix(1,0,0,-1,115.1069,256.33113)" d="M 0 0 L -6.2 -13.763 L -10.423 -11.86 L -11.231 -13.655 L -1.057 -18.239 L -.249 -16.444 L -4.384 -14.581 L 1.816 -.818 Z " fill="#0e2963"/>
<path transform="matrix(1,0,0,-1,91.7915,241.8242)" d="M 0 0 L -2.064 1.645 L -4.629 2.43 L -5.998 2.446 L -7.417 2.166 L -7.147 .232 L -5.926 .456 L -4.97 .462 L -3.065 -.074 L -1.489 -1.33 L -.646 -3.045 L -.481 -4.648 L -.831 -6.396 L -1.551 -7.877 L -3.555 -10.393 L -4.838 -11.426 L -6.478 -12.175 L -8.097 -12.357 L -9.908 -11.896 L -11.484 -10.641 L -12.414 -8.918 L -12.622 -7.986 L -12.695 -6.73 L -14.64 -6.898 L -14.596 -8.346 L -14.274 -9.676 L -12.936 -12 L -10.871 -13.645 L -8.212 -14.352 L -5.916 -14.126 L -3.759 -13.113 L -2.086 -11.746 L .112 -8.987 L 1.041 -7.089 L 1.546 -4.761 L 1.306 -2.482 Z " fill="#0e2963"/>
<path transform="matrix(1,0,0,-1,76.0923,237.4756)" d="M 0 0 L -2.37 -2.175 L -3.816 -3.015 L -5.553 -3.501 L -7.181 -3.431 L -8.899 -2.694 L -10.231 -1.245 L -10.817 .53 L -10.748 2.159 L -10.115 3.848 L -9.174 5.2 L -6.804 7.376 L -5.375 8.198 L -3.656 8.669 L -2.044 8.617 L -.274 7.896 L 1.025 6.481 L 1.625 4.62 L 1.539 3.01 L .906 1.321 Z M 2.666 .362 L 3.526 2.585 L 3.641 4.874 L 2.735 7.529 L .949 9.475 L -1.62 10.604 L -3.91 10.685 L -6.198 10.019 L -8.028 8.958 L -10.627 6.571 L -11.875 4.806 L -12.735 2.583 L -12.799 .275 L -11.908 -2.329 L -10.123 -4.274 L -7.604 -5.384 L -5.299 -5.517 L -3.011 -4.85 L -1.146 -3.757 L 1.454 -1.37 Z " fill="#0e2963"/>
<path transform="matrix(1,0,0,-1,68.146,217.2637)" d="M 0 0 L -11.127 -7.193 L -4.9 7.578 L -6.06 9.373 L -20.391 .107 L -19.31 -1.565 L -7.699 5.94 L -14.175 -9.508 L -13.25 -10.938 L 1.082 -1.674 Z " fill="#0e2963"/>
<path transform="matrix(1,0,0,-1,57.6533,198.85739)" d="M 0 0 L -.817 1.818 L -14.59 -4.373 L -16.489 -.146 L -18.285 -.954 L -13.708 -11.136 L -11.913 -10.328 L -13.773 -6.19 Z " fill="#0e2963"/>
<path transform="matrix(1,0,0,-1,37.9863,189.8652)" d="M 0 0 L -1.357 4.703 L -1.357 6.176 L -.652 7.453 L .618 8.244 L 2.091 8.246 L 3.276 7.863 L 4.343 6.672 L 5.787 1.67 Z M 14.502 4.184 L 7.678 2.215 L 6.407 6.619 L 12.374 11.563 L 11.761 13.684 L 5.509 8.433 L 4.402 9.586 L 2.416 10.237 L -.023 10.207 L -2.159 8.867 L -3.373 6.669 L -3.308 4.365 L -1.338 -2.46 L 15.055 2.271 Z " fill="#0e2963"/>
<path transform="matrix(1,0,0,-1,34.0225,166.9277)" d="M 0 0 L 6.617 3.297 L 7.236 -1.512 Z M 14.575 -3.059 L 9.277 -1.949 L 8.48 4.239 L 13.323 6.654 L 13.053 8.748 L -3.077 .402 L -2.875 -1.168 L 14.844 -5.152 Z " fill="#0e2963"/>
<path transform="matrix(1,0,0,-1,34.5112,153.7598)" d="M 0 0 L 2.105 -.492 L 5.633 -.55 L 7.705 -.128 L 9.858 .893 L 11.517 2.475 L 12.688 5.023 L 12.731 7.664 L 11.789 10.176 L 10.966 11.27 L 9.878 12.225 L 8.51 10.831 L 9.433 9.999 L 10.021 9.245 L 10.758 7.408 L 10.725 5.392 L 9.88 3.677 L 8.71 2.568 L 7.112 1.778 L 5.498 1.445 L 2.282 1.498 L .68 1.885 L -.915 2.728 L -2.048 3.898 L -2.788 5.615 L -2.755 7.632 L -1.957 9.419 L -1.345 10.153 L -.395 10.978 L -1.715 12.416 L -2.835 11.499 L -3.693 10.432 L -4.718 7.952 L -4.762 5.312 L -3.699 2.773 L -2.119 1.091 Z " fill="#0e2963"/>
<path transform="matrix(1,0,0,-1,33.3633,130.2612)" d="M 0 0 L 14.915 -2.361 L 15.227 -.393 L .312 1.968 L 1.036 6.544 L -.908 6.852 L -2.654 -4.174 L -.709 -4.482 Z " fill="#0e2963"/>
<path transform="matrix(1,0,0,-1,43.3403,98.756809)" d="M 0 0 L 7.373 -.5 L 5.478 -4.96 Z M 11.024 -10.003 L 7.016 -6.371 L 9.456 -.63 L 14.853 -.995 L 15.679 .948 L -2.45 1.902 L -3.07 .445 L 10.198 -11.946 Z " fill="#0e2963"/>
<path transform="matrix(1,0,0,-1,58.6445,91.865207)" d="M 0 0 L 2.782 .256 L 5.357 2.276 L 6.48 4.093 L 7.136 7.299 L 6.12 9.902 L 4.948 11.247 L -5.423 17.658 L -6.47 15.963 L 3.676 9.691 L 4.431 8.858 L 5.112 7.083 L 4.642 4.862 L 3.847 3.576 L 2.07 2.163 L .179 1.978 L -.904 2.28 L -11.051 8.552 L -12.099 6.857 L -1.727 .447 Z " fill="#0e2963"/>
<path transform="matrix(1,0,0,-1,61.8647,66.1416)" d="M 0 0 L 2.566 2.952 L 4.424 3.881 L 6.034 3.977 L 7.746 3.569 L 9.333 2.762 L 11.344 1.014 L 12.349 -.464 L 13.007 -2.085 L 13.134 -3.659 L 12.458 -5.68 L 9.907 -8.614 Z M 14.195 -6.681 L 15.162 -3.959 L 14.981 -1.607 L 14.08 .575 L 12.833 2.359 L 10.459 4.422 L 8.52 5.41 L 6.232 5.999 L 3.878 5.851 L 1.317 4.515 L -2.792 -.212 L 10.085 -11.408 Z " fill="#0e2963"/>
<path transform="matrix(1,0,0,-1,86.2017,62.607896)" d="M 0 0 L -11.457 12.65 L -12.933 11.313 L -1.477 -1.337 Z " fill="#0e2963"/>
<path transform="matrix(1,0,0,-1,85.2266,43.94821)" d="M 0 0 L 8.916 -12.179 L 10.523 -11.003 L 1.607 1.177 L 5.344 3.913 L 4.182 5.5 L -4.822 -1.091 L -3.66 -2.679 Z " fill="#0e2963"/>
<path transform="matrix(1,0,0,-1,98.7329,39.832)" d="M 0 0 L 1.301 -.745 L 3.489 -1.011 L 8.438 .128 L 9.738 .092 L 10.748 -.618 L 11.431 -1.886 L 11.465 -2.658 L 11.277 -3.523 L 10.022 -4.99 L 8.205 -5.969 L 5.995 -6.423 L 4.81 -6.297 L 4.135 -6.007 L 3.527 -7.916 L 4.332 -8.245 L 6.078 -8.45 L 8.757 -7.907 L 11.251 -6.563 L 13.1 -4.478 L 13.488 -2.769 L 13.401 -1.343 L 12.297 .707 L 10.745 1.97 L 8.514 2.214 L 3.395 1.038 L 1.896 1.239 L 1.371 1.556 L .679 2.383 L .404 3.653 L .765 4.856 L 1.817 5.941 L 3.486 6.84 L 5.662 7.357 L 7.253 7.288 L 7.408 9.279 L 5.579 9.385 L 2.786 8.698 L .566 7.503 L -1.036 5.822 L -1.626 3.677 L -1.229 1.574 Z " fill="#0e2963"/>
<path transform="matrix(1,0,0,-1,211.2129,281.8066)" d="M 0 0 L -9.517 26.871 C 33.47 42.36 64.287 83.55 64.287 131.807 C 64.287 193.288 14.269 243.307 -47.213 243.307 C -60.085 243.307 -72.452 241.106 -83.966 237.075 L -93.483 263.946 C -78.991 269.035 -63.422 271.813 -47.213 271.813 C 29.987 271.813 92.794 209.007 92.794 131.807 C 92.794 71.167 54.039 19.416 0 0 M -47.213 21.307 C -108.143 21.307 -157.713 70.877 -157.713 131.807 C -157.713 192.736 -108.143 242.307 -47.213 242.307 C 13.717 242.307 63.287 192.736 63.287 131.807 C 63.287 70.877 13.717 21.307 -47.213 21.307 M -187.22 131.807 C -187.22 192.446 -148.465 244.198 -94.426 263.613 L -84.909 236.742 C -127.895 221.253 -158.713 180.063 -158.713 131.807 C -158.713 70.325 -108.694 20.307 -47.213 20.307 C -34.34 20.307 -21.974 22.507 -10.46 26.538 L -.942 -.333 C -15.435 -5.422 -31.004 -8.2 -47.213 -8.2 C -124.413 -8.2 -187.22 54.606 -187.22 131.807 M -47.213 272.8 C -124.957 272.8 -188.206 209.55 -188.206 131.807 C -188.206 54.063 -124.957 -9.187 -47.213 -9.187 C 30.531 -9.187 93.78 54.063 93.78 131.807 C 93.78 209.55 30.531 272.8 -47.213 272.8 " fill="#0e2963"/>
</g>
</g>
</g>
</svg>
